<?xml version="1.0" encoding="UTF-8" standalone="no"?>
<!-- Created with Inkscape (http://www.inkscape.org/) -->

<svg
   version="1.1"
   id="svg192"
   width="769.33331"
   height="748"
   viewBox="0 0 769.33331 748"
   sodipodi:docname="Untitled-2.svg"
   inkscape:version="1.2.1 (9c6d41e410, 2022-07-14, custom)"
   xmlns:inkscape="http://www.inkscape.org/namespaces/inkscape"
   xmlns:sodipodi="http://sodipodi.sourceforge.net/DTD/sodipodi-0.dtd"
   xmlns="http://www.w3.org/2000/svg"
   xmlns:svg="http://www.w3.org/2000/svg">
  <defs
     id="defs196" />
  <sodipodi:namedview
     id="namedview194"
     pagecolor="#505050"
     bordercolor="#ffffff"
     borderopacity="1"
     inkscape:showpageshadow="0"
     inkscape:pageopacity="0"
     inkscape:pagecheckerboard="1"
     inkscape:deskcolor="#505050"
     showgrid="false"
     inkscape:zoom="0.68850267"
     inkscape:cx="364.55922"
     inkscape:cy="392.88155"
     inkscape:window-width="1342"
     inkscape:window-height="718"
     inkscape:window-x="0"
     inkscape:window-y="0"
     inkscape:window-maximized="1"
     inkscape:current-layer="g198" />
  <g
     inkscape:groupmode="layer"
     inkscape:label="Image"
     id="g198">
    <path
       style="fill:#000000;stroke-width:1.33333"
       d="M 352.97504,746.68772 C 276.83282,739.28928 209.62398,712.46053 151.60938,666.3056 86.492455,614.50024 39.930675,541.06923 20.793326,460 c -7.138161,-30.23852 -9.270639,-50.02067 -9.270639,-86 0,-35.97933 2.132478,-55.76148 9.270639,-86 C 53.216782,150.64845 161.61401,42.242663 298.66666,10.104703 329.10162,2.9679021 348.7392,0.85602087 384.66665,0.85602087 c 35.92746,0 55.56504,2.11188123 86,9.24868213 32.03176,7.511242 67.57124,21.24293 95.27553,36.812418 C 658.61086,98.995833 724.44052,185.91037 748.53999,288 c 7.13816,30.23852 9.27063,50.02067 9.27063,86 0,35.92745 -2.11188,55.56504 -9.24868,86 -22.52411,96.05427 -82.7382,179.40924 -167.83336,232.33337 -42.59742,26.49306 -90.45401,43.80764 -142.72859,51.63943 -21.1085,3.16247 -65.74905,4.58788 -85.02495,2.71492 z m 57.69161,-49.15292 c 7.21162,-0.85372 7.08711,-0.89716 -7.50104,-2.61665 -39.65167,-4.67375 -84.83867,-18.8321 -120.48054,-37.74992 -15.67965,-8.32238 -42.48685,-26.09614 -56.68508,-37.58346 C 211.05919,607.49668 183.60159,579.05028 172.34734,564 128.71746,505.65392 107.02343,437.67396 109.79904,368 c 1.79884,-45.15492 10.82443,-80.84052 30.85622,-122 47.44913,-97.49411 143.44025,-165.752348 256.01139,-182.046919 10.26667,-1.48609 19.26667,-2.93611 20,-3.222269 3.91022,-1.52582 -51.65963,-0.463416 -66.67483,1.274715 C 246.2555,74.013837 155.76768,128.43365 100.72034,211.9186 36.129051,309.87792 33.854246,435.94264 94.854618,536.98384 c 49.251302,81.58 138.334322,140.44925 236.734652,156.44276 27.05275,4.39703 61.51433,6.18736 79.07738,4.1082 z m 42.66667,-90.89933 c 31.43745,-2.10188 40.54019,-3.53747 58.6676,-9.25244 39.9941,-12.6088 78.985,-39.40491 107.34445,-73.77142 5.57266,-6.75305 11.3271,-13.71005 12.78766,-15.46 5.95855,-7.13916 22.53362,-33.51058 22.53362,-35.85166 0,-0.67099 1.2,-2.30596 2.66666,-3.63328 1.46667,-1.32732 2.66667,-2.84703 2.66667,-3.37715 0,-1.97591 4.18127,-10.88603 4.81236,-10.25495 1.91792,1.91792 -11.36208,34.49676 -18.98241,46.56815 C 641.35714,508.68808 638.29299,516 639.79658,516 c 2.08748,0 25.76579,-27.08603 32.05359,-36.66667 3.36901,-5.13333 13.93096,-24.70168 23.47098,-43.48522 9.54003,-18.78355 22.57467,-42.32287 28.96587,-52.3096 6.39121,-9.98675 12.65369,-19.81839 13.91664,-21.84811 l 2.29625,-3.6904 -4.58331,4.07853 c -2.52081,2.2432 -9.08329,7.62022 -14.58329,11.94892 -5.5,4.32871 -15.4,12.46408 -22,18.0786 -19.77532,16.8226 -51.42113,40.58255 -67.48781,50.67043 -13.88584,8.71859 -31.86049,17.26604 -45.84552,21.80083 -16.9784,5.50542 -63.74198,12.75602 -82.2714,12.75602 h -5.1416 l 0.37316,-17 c 0.35211,-16.04025 0.52372,-16.99221 3.03984,-16.86198 1.46667,0.0759 15.39327,1.5493 30.948,3.27422 15.55474,1.72491 28.69738,2.72018 29.20587,2.21168 0.50848,-0.50849 -4.22053,-6.26172 -10.50893,-12.78493 -12.377,-12.83917 -14.29102,-16.74976 -14.30416,-29.22544 -0.009,-8.53719 3.54802,-16.16104 9.64692,-20.67637 2.3901,-1.76954 7.84226,-5.75767 12.11592,-8.86252 4.27365,-3.10486 7.5221,-5.89338 7.21877,-6.19671 -0.30333,-0.30333 -3.94708,0.61672 -8.09721,2.04459 -19.15064,6.58878 -51.24542,11.1079 -58.55851,8.24537 -3.65792,-1.43181 -3.66667,-1.46685 -3.66667,-14.69252 0,-7.29151 0.32932,-14.11547 0.73182,-15.16436 0.83456,-2.17483 5.0008,-2.0092 30.60152,1.21656 24.8852,3.13559 41.0882,4.36901 43.04058,3.27641 1.28264,-0.71781 0.29407,-2.03108 -3.51697,-4.67213 -2.91561,-2.02053 -8.8952,-7.41655 -13.28797,-11.99116 -12.10488,-12.60599 -15.03267,-24.74468 -9.06128,-37.56852 3.9426,-8.46695 10.41417,-13.919 24.64714,-20.76429 6.13516,-2.95068 10.63516,-5.82328 10,-6.38355 -1.84621,-1.62851 -18.01621,-3.98251 -43.15484,-6.28237 -12.83333,-1.1741 -26.93333,-2.51135 -31.33333,-2.97168 l -8,-0.83696 L 496.32281,256 c -0.18911,-4.76667 0.18437,-9.47827 0.82996,-10.47021 0.79333,-1.21898 6.13403,-2.17376 16.47705,-2.94571 15.02884,-1.12168 29.22858,-4.62172 29.4164,-7.25075 0.1941,-2.71685 -15.17948,-8.93632 -32.18614,-13.02108 l -17.52676,-4.20968 V 199.86919 181.6358 l 23,-0.78421 c 24.16821,-0.82404 40.76234,-2.38996 43.54386,-4.10903 1.2292,-0.75968 0.87935,-1.85132 -1.35581,-4.23053 -1.70237,-1.81211 -3.3406,-5.66498 -3.76693,-8.85935 L 553.99998,158 l -30,-0.66865 c -16.5,-0.36776 -30.95386,-1.14507 -32.11971,-1.72735 -2.89616,-1.44649 -4.2067,0.46515 -9.17124,13.37784 -4.19198,10.90324 -4.32011,13.68483 -0.63035,13.68483 1.57345,0 1.92131,3.11076 1.92131,17.18202 v 17.18203 l -18.33334,0.60375 c -20.95781,0.69018 -30.18812,3.24682 -33.58745,9.30316 -1.80736,3.22005 -1.76871,3.79217 0.41956,6.21018 5.38113,5.9461 20.57445,9.9468 43.83456,11.54254 l 13,0.89185 v 9.29337 9.29336 l -29,-0.31534 c -27.11645,-0.29487 -29.56289,-0.11974 -37.66667,2.69672 -4.76666,1.65664 -9.7058,3.94369 -10.97586,5.08234 -2.17211,1.9474 -2.08199,2.32906 1.51817,6.42942 12.32528,14.03772 15.45165,22.498 13.47677,36.46957 -1.07446,7.60157 -1.73698,8.80945 -8.59166,15.66413 -4.08508,4.08508 -7.42742,7.85915 -7.42742,8.38683 0,2.06185 14.49879,4.11197 39.0232,5.51785 14.10391,0.80852 28.64347,1.8741 32.31014,2.36795 l 6.66666,0.89791 0.37171,16.78768 0.37171,16.78768 -7.70504,-1.1862 c -4.23778,-0.65242 -17.60504,-3.79522 -29.70504,-6.984 -39.08312,-10.29983 -38.64328,-10.23968 -40.80326,-5.5788 -1.25838,2.71538 -0.8129,4.20096 3.09555,10.32293 10.50833,16.45956 11.61809,19.54737 11.4708,31.9164 -0.19972,16.77213 -3.29987,21.81663 -25.11704,40.86983 l -7.97939,6.96849 16.66667,-7.86515 c 23.81259,-11.23738 42.70637,-14.43564 60.66667,-10.26937 l 6.66666,1.54647 0.36974,18.95766 0.36973,18.95766 -3.70307,0.98782 c -5.00929,1.33628 -98.41295,1.35487 -104.70306,0.0208 l -5,-1.06042 v -23.8609 c 0,-13.12348 0.46301,-24.14704 1.02892,-24.4968 0.56591,-0.34974 4.85709,-0.18452 9.53597,0.36716 10.03223,1.1829 31.77293,-0.35978 33.81241,-2.39926 1.00998,-1.00998 -0.71305,-3.66479 -5.92468,-9.12863 -15.44245,-16.1898 -17.41198,-36.86461 -4.98494,-52.32841 2.33578,-2.90656 6.26109,-5.94942 8.72293,-6.7619 2.46183,-0.81248 4.47605,-2.01529 4.47605,-2.67292 0,-0.65762 1.95,-2.21158 4.33334,-3.45322 l 4.33333,-2.25755 -4,-1.17027 c -2.2,-0.64364 -8.5,-1.12065 -14,-1.06001 -5.5,0.0607 -16.45,-0.28944 -24.33333,-0.77796 l -14.33333,-0.88824 v -10.49512 -10.49513 l 19.66666,-0.0988 c 10.81667,-0.0544 22.36667,-0.50524 25.66667,-1.00195 l 6,-0.90311 -5.14522,-3.99806 c -16.6992,-12.976 -19.79432,-15.95851 -22.87974,-22.04732 -4.02233,-7.9377 -4.29523,-16.98187 -0.74808,-24.79335 4.25621,-9.37296 16.83702,-16.23045 39.10637,-21.31588 4.95,-1.13039 9,-2.53291 9,-3.11671 0,-0.58381 -8.85,-1.44476 -19.66667,-1.91324 -10.81666,-0.46846 -26.73693,-1.20812 -35.37837,-1.64366 l -15.7117,-0.79188 0.37837,-13.52134 0.37837,-13.52133 18.66667,-0.73628 c 18.24901,-0.71981 25.76212,-2.41903 26.957,-6.09676 0.26798,-0.82484 -1.78771,-2.40023 -4.56822,-3.50088 -6.39386,-2.53097 -27.90477,-7.39995 -38.38878,-8.68927 l -8,-0.98382 -0.37757,-15.88559 c -0.21523,-9.05531 0.17969,-16.44285 0.9185,-17.18167 0.71284,-0.71284 12.02659,-1.78724 25.14168,-2.38754 28.45964,-1.30268 30.98405,-1.99182 30.98405,-8.45828 0,-5.9911 -2.64182,-7.41324 -13.77106,-7.41324 -7.88487,0 -30.15709,-1.83806 -40.48132,-3.3408 -4.97249,-0.72378 -7.22355,1.55873 -12.34864,12.52114 -2.69145,5.75695 -2.98536,7.44159 -1.66667,9.55315 0.99087,1.58664 1.60103,8.09747 1.60103,17.08408 v 14.52041 l -15.66667,0.58763 c -11.021,0.41337 -16.90373,1.23824 -19.83842,2.78169 -12.31226,6.47543 -1.91659,12.11835 28.77337,15.61862 5.94676,0.67824 11.39416,1.59277 12.10533,2.0323 0.71119,0.43954 1.29306,6.54828 1.29306,13.57499 v 12.77584 l -37,-0.95253 c -20.35,-0.5239 -38.01307,-0.55842 -39.25126,-0.0767 -1.96213,0.76335 -1.67862,1.67496 2.20742,7.09801 6.72848,9.38974 9.22345,19.64592 8.31428,34.17794 -0.68284,10.91453 -5.01339,28.04604 -8.94798,35.39786 -2.53269,4.73239 1.02087,5.25666 38.12074,5.62418 L 353.99999,326 l 0.38941,10.33333 0.38943,10.33334 -5.72276,-0.03 c -5.39432,-0.0283 -39.85697,-2.99451 -60.38941,-5.1977 -5.13334,-0.55082 -9.82934,-0.57392 -10.43555,-0.0513 -0.60621,0.52259 0.67632,4.47416 2.85009,8.78128 6.1416,12.16904 8.25212,20.98769 8.25212,34.48089 0,15.44124 -3.43417,26.24814 -11.48008,36.12634 -3.18361,3.90862 -5.26265,7.43152 -4.62006,7.82866 0.64257,0.39714 8.27798,0.13307 16.96757,-0.58692 20.38596,-1.68898 48.66584,-1.7161 53.04577,-0.0508 l 3.42014,1.30034 v 23.40817 c 0,18.99736 -0.35696,23.54516 -1.8944,24.13513 -4.31147,1.65447 -57.1915,-6.52489 -74.1056,-11.46248 -31.81536,-9.28758 -54.38112,-16.99166 -62.42965,-21.31385 -1.23036,-0.66072 -6.73702,-3.4006 -12.23702,-6.08863 C 185.91137,433.01513 172.02925,424.84072 150,410.85895 c -27.86776,-17.68744 -28.65647,-17.24695 -4.13892,2.31156 29.83962,23.80409 57.13634,38.58874 96.21041,52.11017 22.65985,7.84136 42.57875,12.52795 68.59517,16.13929 38.96716,5.40904 46.67416,5.8315 105.99999,5.81036 57.79398,-0.0205 85.18813,-1.20884 118,-5.11844 9.16667,-1.09222 24.75568,-2.9561 34.64227,-4.14196 9.88657,-1.18585 18.58657,-2.63596 19.33333,-3.22245 0.74675,-0.58649 3.75773,-1.47264 6.69107,-1.96923 l 5.33333,-0.90288 -4,2.72024 c -2.2,1.49614 -4.56056,2.7242 -5.24571,2.72903 -0.68513,0.005 -3.68513,1.13243 -6.66666,2.50576 -19.30158,8.89057 -54.75775,15.71627 -106.08763,20.42299 -21.65189,1.98538 -142.71358,2.0617 -160.66666,0.10133 -62.73058,-6.84999 -108.83937,-19.195 -143.68606,-38.47005 -5.89362,-3.25999 -11.01096,-5.63195 -11.37187,-5.27104 -1.35868,1.35868 10.89589,34.05766 19.04717,50.82378 9.0346,18.58296 23.47831,39.3147 34.84466,50.01418 24.25061,22.82781 62.93111,42.10998 93.27033,46.49512 5.07601,0.73366 18.8291,1.42216 30.56244,1.52997 11.73333,0.10787 27.93333,0.61748 36,1.13256 23.54466,1.50341 54.4161,1.51403 76.66666,0.0264 z"
       id="path360" />
  </g>
</svg>